<?xml version="1.0" encoding="UTF-8"?><svg id="Capa_2" xmlns="http://www.w3.org/2000/svg" viewBox="0 0 35.9665 35.33626"><g id="Capa_1-2"><path d="m18.09455,35.33095c-3.1804,0-6.3608-.00395-9.54119.001-4.00815.00624-7.15924-2.76589-8.28668-6.23861-.21673-.66756-.25816-1.42382-.25613-2.16237.0172-6.24954-.05083-12.49989.02992-18.74847C.08765,4.53132,3.02657.97624,6.78663.3627c1.38624-.2262,2.75307-.32558,4.1435-.32564,5.39419-.0002,10.79067-.0986,16.18183.02608,4.05148.0937,7.9324,2.78963,8.51689,7.16422.20687,1.54835.31188,3.07684.31461,4.62391.0085,4.80973.05151,9.62003-.00771,14.42905-.04972,4.03822-2.22551,7.27897-6.32322,8.69215-.84813.2925-1.67213.36534-2.53804.36376-2.99331-.00546-5.98663-.00211-8.97995-.00211v-.00318Zm-8.05555-18.38931c-.75001.01396-1.40266-.13603-1.58273.60021-.13457.55019.30313.88452.73297,1.02754,2.19811.73136,4.26261-.44104,4.89796-2.64482.26518-.91981.40198-1.89552.92093-2.73017.09602-.15444.12958-.49443.40007-.425.2614.06709.50214.28206.49799.59015-.0138,1.02361.46327,1.93331.71135,2.89019.67101,2.5881,1.4666,5.14503,2.21292,7.71428.21848.75213.42722,1.50718.65976,2.25509.15681.50433.4698.80687,1.0578.86117.6274.05794.78215-.39151.99046-.77292.17267-.31615.27875-.67045.39-1.01544.60021-1.86124.96105-3.7863,1.59523-5.64255.25324-.74124.65434-.9952,1.37271-1.05265.63779-.051,1.27523-.16066,1.8991-.30264.325-.07396.74058-.28403.68331-.63729-.06152-.3795-.41719-.7099-.86348-.70003-.89275.01974-1.77931-.07439-2.68232.12087-1.02557.22176-1.62387.8001-1.92854,1.71193-.33415,1.00005-.57543,2.03032-.91829,3.02713-.09503.27628-.02918.7865-.49425.77349-.34362-.00961-.54558-.37006-.70528-.6642-.0987-.18179-.19953-.39933-.18886-.595.03914-.71816-.21454-1.37946-.42596-2.03125-1.1054-3.40794-2.04883-6.85983-2.96776-10.31868-.08454-.3182-.23125-.45277-.55506-.50148-1.11192-.16727-1.54479.26406-1.89545,1.64782-.51749,2.04208-1.09789,4.06987-1.70345,6.08869-.20198.67336-.67849,1.0722-1.48784.81294-.25927-.08305-.54785-.07777-.62329-.0874Z" fill="#00bd7c"/><path d="m10.06442,16.84437c.07545.00963.36403.00435.62329.0874.80935.25926,1.28586-.13958,1.48784-.81294.60557-2.01883,1.18597-4.04661,1.70345-6.08869.35066-1.38376.78352-1.81509,1.89545-1.64782.32381.04871.47052.18328.55506.50148.91894,3.45885,1.86237,6.91073,2.96776,10.31868.21141.65179.4651,1.31308.42596,2.03125-.01067.19567.09016.4132.18886.595.1597.29414.36166.65459.70528.6642.46506.013.39922-.49722.49425-.77349.34286-.99681.58414-2.02708.91829-3.02713.30467-.91183.90297-1.49017,1.92854-1.71193.90301-.19526,1.78958-.10113,2.68232-.12087.44628-.00987.80196.32053.86348.70003.05727.35326-.35831.56333-.68331.63729-.62387.14198-1.26132.25164-1.8991.30264-.71837.05745-1.11947.31142-1.37271,1.05265-.63417,1.85626-.99502,3.78131-1.59523,5.64255-.11125.34498-.21733.69928-.39,1.01544-.20831.38141-.36306.83086-.99046.77292-.588-.0543-.90099-.35684-1.0578-.86117-.23254-.74791-.44128-1.50296-.65976-2.25509-.74632-2.56925-1.54191-5.12618-2.21292-7.71428-.24809-.95688-.72516-1.86659-.71135-2.89019.00416-.30809-.23659-.52306-.49799-.59015-.27049-.06943-.30405.27056-.40007.425-.51895.83466-.65575,1.81036-.92093,2.73017-.63535,2.20378-2.69985,3.37618-4.89796,2.64482-.42984-.14302-.86753-.47735-.73297-1.02754.18007-.73624.83272-.58625,1.58273-.60021Zm10.73112,6.00076c-.06873-.03273-.13444-.07017-.20523-.09103-.0105-.00309-.0729.09695-.06363.10704.0556.06054.12513.10873.18999.16106.02217-.04977.04434-.09954.07887-.17707Z" fill="#0a1409"/><path d="m20.79553,22.84513c-.03454.07753-.0567.1273-.07887.17707-.06486-.05233-.13439-.10052-.18999-.16106-.00926-.01009.05314-.11013.06363-.10704.07078.02085.1365.0583.20523.09103Z" fill="#00bd7c"/></g></svg>